<?xml version="1.0" standalone="no"?>
<!DOCTYPE svg PUBLIC "-//W3C//DTD SVG 20010904//EN"
 "http://www.w3.org/TR/2001/REC-SVG-20010904/DTD/svg10.dtd">
<svg version="1.0" xmlns="http://www.w3.org/2000/svg"
 width="830.000000pt" height="830.000000pt" viewBox="0 0 830.000000 830.000000"
 preserveAspectRatio="xMidYMid meet">
<metadata>
Created by potrace 1.14, written by Peter Selinger 2001-2017
</metadata>
<g transform="translate(0.000000,830.000000) scale(0.100000,-0.100000)"
fill="#000000" stroke="none">
<path d="M1194 5900 c-509 -94 -760 -164 -815 -226 -45 -52 -57 -102 -179
-779 -25 -140 -71 -339 -117 -510 -65 -240 -76 -295 -81 -384 -8 -181 23 -351
129 -705 38 -127 71 -253 75 -281 12 -104 27 -129 122 -192 110 -72 188 -99
330 -113 103 -9 327 -1 412 15 14 3 41 1 60 -5 19 -6 116 -33 215 -60 100 -27
214 -62 255 -78 91 -36 243 -76 368 -97 77 -14 109 -14 185 -5 326 39 563 161
735 379 l39 48 58 -79 c234 -317 630 -496 1106 -500 355 -4 657 79 913 251 92
61 229 193 291 280 28 38 53 70 56 70 4 1 25 -23 47 -52 172 -228 416 -357
749 -397 76 -9 108 -9 185 5 125 21 277 61 368 97 41 16 155 51 255 78 99 27
196 54 215 60 19 6 46 8 60 5 85 -16 309 -24 412 -15 142 14 220 41 330 113
95 63 110 88 122 192 4 28 37 154 75 281 106 354 137 524 129 705 -5 89 -16
144 -81 384 -46 171 -92 370 -117 510 -122 677 -134 727 -179 779 -26 29 -66
46 -231 98 -123 38 -247 65 -600 130 l-444 81 -35 -19 c-19 -11 -37 -26 -41
-34 -17 -37 -62 -183 -80 -265 -12 -49 -33 -126 -47 -171 -19 -58 -24 -90 -19
-116 8 -42 40 -86 69 -97 20 -7 21 -15 18 -98 l-3 -90 69 -41 c40 -24 82 -42
99 -42 46 0 101 19 132 45 l29 24 39 -19 c21 -11 55 -20 76 -20 21 0 72 -12
114 -26 42 -14 97 -28 123 -31 l46 -5 -7 -127 c-4 -69 -10 -139 -14 -154 -3
-16 -49 -85 -101 -155 -54 -74 -117 -173 -148 -237 l-55 -109 -48 54 c-203
232 -315 289 -612 311 -271 20 -412 -14 -614 -150 -41 -28 -76 -51 -78 -51 -2
0 -2 313 -1 695 1 527 -1 695 -10 696 -49 4 -801 3 -808 -1 -5 -3 -10 -486
-11 -1100 l-3 -1095 -24 -73 c-58 -187 -178 -311 -351 -363 -100 -30 -307 -33
-410 -6 -191 51 -316 179 -372 384 -21 77 -21 87 -23 1159 -1 595 -4 1085 -8
1090 -4 7 -783 11 -817 5 -3 -1 -5 -306 -4 -678 0 -373 -1 -681 -3 -685 -2 -5
-31 10 -64 33 -33 22 -93 56 -132 74 -141 67 -251 82 -467 66 -297 -22 -409
-79 -612 -311 l-48 -54 -55 109 c-31 64 -94 163 -148 237 -52 70 -98 139 -101
155 -4 15 -10 85 -14 154 l-7 127 46 5 c26 3 81 17 123 31 42 14 93 26 114 26
21 0 55 9 76 20 l39 19 29 -24 c31 -26 86 -45 132 -45 17 0 59 18 99 42 l69
41 -3 90 c-3 83 -2 91 18 98 29 11 61 55 69 97 5 26 0 58 -19 116 -14 45 -35
122 -47 171 -11 50 -32 126 -47 170 -14 44 -28 86 -29 92 -5 20 -66 53 -94 52
-14 -1 -215 -36 -446 -79z m328 -22 c-10 -10 -18 -48 -9 -48 1 0 24 11 51 25
27 14 55 25 62 25 20 0 34 -34 34 -79 0 -23 5 -41 10 -41 6 0 10 7 10 16 0 8
4 13 9 10 4 -3 18 -61 31 -128 12 -68 28 -148 35 -178 18 -73 18 -73 16 -90
-1 -13 -99 -58 -105 -48 -1 2 -8 28 -15 58 -7 30 -31 97 -52 149 -27 64 -36
98 -29 105 15 15 12 46 -4 52 -27 10 -66 -25 -66 -60 0 -41 31 -166 70 -291
30 -93 31 -99 14 -112 -23 -17 -83 -28 -93 -17 -5 5 -16 41 -25 79 -10 39 -33
109 -52 156 -19 48 -34 98 -34 113 0 30 -29 36 -50 11 -19 -23 3 -135 77 -388
4 -13 -6 -22 -42 -38 -26 -11 -50 -17 -54 -12 -4 4 -25 80 -46 168 -48 200
-43 187 -74 183 -25 -3 -26 -5 -23 -58 1 -30 15 -117 30 -193 l28 -138 -36
-16 c-19 -9 -67 -18 -106 -21 -99 -6 -127 10 -149 84 -20 70 -15 91 11 39 16
-33 25 -41 52 -43 l34 -3 -6 43 c-14 93 -30 145 -59 201 -30 57 -40 64 -65 48
-11 -6 -11 -17 -4 -45 10 -35 9 -37 -41 -86 -29 -27 -65 -52 -80 -56 -36 -8
-73 16 -94 62 -10 20 -27 37 -41 41 -43 11 -46 -9 -16 -104 23 -69 34 -91 54
-100 28 -14 37 -54 40 -173 2 -77 9 -63 35 65 10 50 19 91 19 92 1 0 17 4 37
8 35 6 36 6 42 -27 10 -60 26 -88 63 -110 l37 -21 -7 -66 c-6 -67 5 -193 25
-289 6 -32 23 -68 44 -95 64 -81 213 -302 243 -362 64 -129 80 -238 62 -425
-6 -69 -25 -173 -41 -234 -40 -147 -40 -184 -1 -160 47 29 131 243 152 393 12
79 9 292 -5 351 -5 22 1 29 42 53 26 15 78 53 115 86 76 65 184 123 273 146
94 24 468 32 565 11 84 -18 171 -58 245 -114 l49 -37 1 -340 c1 -188 4 -346 8
-352 11 -17 -217 -127 -326 -158 -112 -31 -270 -47 -362 -35 -95 12 -144 24
-320 75 -82 24 -167 46 -187 50 -98 18 3 -60 210 -164 108 -54 191 -79 311
-94 88 -12 119 -12 200 0 163 24 341 94 442 174 20 16 39 29 42 29 3 0 10 -30
16 -66 14 -76 54 -206 86 -280 l23 -51 -40 -46 c-118 -138 -371 -271 -613
-322 -97 -21 -278 -23 -360 -6 -85 19 -288 92 -278 101 4 4 37 15 73 24 160
42 208 64 181 80 -5 3 -113 1 -240 -6 -227 -11 -232 -11 -259 9 -45 33 -63 34
-184 13 -63 -11 -176 -27 -250 -35 -148 -16 -133 -18 -342 41 -103 30 -201 78
-222 109 -7 11 -17 54 -21 95 -10 105 -10 443 1 578 13 170 -14 143 -60 -60
-10 -43 -21 -78 -25 -78 -20 0 -77 340 -64 384 3 11 10 91 15 176 7 127 16
183 48 315 22 88 68 324 103 524 53 305 65 358 72 330 8 -29 10 -31 17 -14 4
11 13 90 20 176 9 113 17 162 29 178 11 14 70 41 171 77 127 46 221 70 525
134 203 43 372 78 375 79 2 1 -1 -4 -8 -11z m5658 -77 c273 -56 363 -79 490
-125 101 -36 160 -63 171 -77 12 -16 20 -65 29 -178 7 -86 16 -165 20 -176 7
-17 9 -15 17 14 7 28 19 -25 72 -330 35 -200 81 -436 103 -524 32 -132 41
-188 48 -315 5 -85 12 -165 15 -176 13 -44 -44 -384 -64 -384 -4 0 -15 35 -25
78 -46 203 -73 230 -60 60 11 -135 11 -473 1 -578 -4 -41 -14 -84 -21 -95 -21
-31 -119 -79 -222 -109 -209 -59 -194 -57 -342 -41 -74 8 -187 24 -250 35
-121 21 -139 20 -184 -13 -27 -20 -32 -20 -259 -9 -127 7 -235 9 -240 6 -27
-16 21 -38 181 -80 36 -9 69 -20 73 -24 10 -9 -193 -82 -278 -101 -82 -17
-263 -15 -360 6 -253 53 -501 186 -626 337 -47 57 -48 60 -35 86 23 45 73 202
89 280 9 41 17 75 19 77 2 2 30 -17 63 -42 118 -88 279 -151 451 -177 158 -23
336 11 506 95 207 104 308 182 211 164 -21 -4 -105 -26 -188 -50 -260 -76
-342 -88 -492 -74 -134 12 -253 47 -388 113 -168 82 -150 30 -147 415 1 183 4
336 7 341 17 27 198 133 260 153 64 20 89 22 310 21 271 -1 320 -9 443 -71 40
-20 103 -62 140 -94 37 -33 89 -71 115 -86 41 -24 47 -31 42 -53 -14 -59 -17
-272 -5 -351 21 -150 105 -364 152 -393 39 -24 39 13 -1 160 -16 61 -35 165
-41 234 -18 187 -2 296 62 425 30 60 179 281 243 362 21 27 38 63 44 95 20 96
31 222 25 289 l-7 66 37 21 c37 22 53 50 63 110 6 33 7 33 42 27 20 -4 36 -8
37 -8 0 -1 9 -42 19 -92 26 -128 33 -142 35 -65 3 119 12 159 40 173 20 9 31
31 54 100 30 95 27 115 -16 104 -14 -4 -31 -21 -41 -41 -21 -46 -58 -70 -94
-62 -15 4 -51 29 -80 56 -50 49 -51 51 -41 86 7 28 7 39 -4 45 -25 16 -35 9
-65 -48 -29 -56 -45 -108 -59 -201 l-6 -43 34 3 c27 2 36 10 52 43 26 52 31
31 11 -39 -22 -74 -50 -90 -149 -84 -39 3 -87 12 -106 21 l-36 16 28 138 c15
76 29 163 30 193 3 53 2 55 -23 58 -31 4 -26 17 -74 -183 -21 -88 -42 -164
-46 -168 -4 -5 -28 1 -54 12 -36 16 -46 25 -42 38 74 253 96 365 77 388 -21
25 -50 19 -50 -11 0 -15 -15 -65 -34 -113 -19 -47 -42 -117 -52 -156 -9 -38
-20 -74 -25 -79 -10 -11 -70 0 -93 17 -17 13 -16 19 14 112 39 125 70 250 70
291 0 35 -39 70 -66 60 -16 -6 -19 -37 -4 -52 7 -7 -2 -41 -29 -105 -21 -52
-45 -119 -52 -149 -7 -30 -14 -56 -15 -58 -6 -10 -104 35 -105 48 -2 17 -2 17
16 90 7 30 23 110 35 178 13 67 27 125 31 128 5 3 9 -2 9 -10 0 -9 5 -16 10
-16 6 0 10 18 10 41 0 45 14 79 34 79 7 0 35 -11 62 -25 27 -14 50 -25 52 -25
7 0 0 38 -9 47 -8 8 -1 9 27 3 22 -5 190 -40 374 -79z m-5490 -683 c-23 -19
-76 -24 -98 -9 -10 6 2 17 43 40 31 17 59 39 63 49 5 12 8 4 10 -23 3 -31 -1
-43 -18 -57z m4976 30 c59 -33 58 -48 -1 -48 -50 0 -75 24 -75 73 1 34 3 39
11 24 6 -10 35 -32 65 -49z"/>
<path d="M1385 5829 c-27 -16 -75 -61 -75 -71 0 -13 28 -10 79 9 57 20 78 13
92 -27 13 -37 26 -38 41 -4 10 22 9 32 -7 62 -18 33 -24 37 -65 39 -25 2 -54
-2 -65 -8z"/>
<path d="M1184 5749 c-36 -10 -79 -53 -69 -69 4 -6 14 -8 24 -5 9 4 38 13 66
20 62 17 75 8 75 -52 0 -37 3 -44 18 -41 14 3 18 16 20 66 2 39 -2 69 -9 78
-13 16 -76 17 -125 3z"/>
<path d="M968 5648 c-49 -21 -68 -53 -25 -43 118 28 132 25 143 -33 4 -18 13
-32 20 -32 15 0 18 31 8 93 -7 37 -7 37 -53 37 -25 -1 -67 -10 -93 -22z"/>
<path d="M6790 5808 c-23 -37 -24 -51 -10 -79 15 -27 26 -24 39 11 14 40 35
47 92 27 81 -29 100 -20 52 25 -40 37 -66 48 -112 48 -36 0 -44 -4 -61 -32z"/>
<path d="M6991 5746 c-7 -9 -11 -39 -9 -78 2 -50 6 -63 21 -66 14 -3 17 4 17
41 0 60 13 69 75 52 28 -7 57 -16 66 -20 28 -11 33 15 8 41 -38 41 -153 60
-178 30z"/>
<path d="M7186 5633 c-10 -62 -7 -93 8 -93 7 0 16 14 20 32 11 58 25 61 144
33 15 -4 22 -1 22 9 0 20 -91 56 -143 56 -44 0 -45 -1 -51 -37z"/>
</g>
</svg>
